<svg viewBox="0 0 24 24" fill="currentColor" xmlns="http://www.w3.org/2000/svg">
  <path d="M3,18 L3.11662113,18.0067277 C3.57570299,18.0600494 3.93995063,18.424297 3.99327227,18.8833789 L4,19 L4,20 L5,20 L5.11662113,20.0067277 C5.61395981,20.0644928 6,20.4871642 6,21 C6,21.5128358 5.61395981,21.9355072 5.11662113,21.9932723 L5,22 L3,22 L2.88337887,21.9932723 C2.42429701,21.9399506 2.06004937,21.575703 2.00672773,21.1166211 L2,21 L2,19 L2.00672773,18.8833789 C2.06004937,18.424297 2.42429701,18.0600494 2.88337887,18.0067277 L3,18 Z M21,18 L21.1166211,18.0067277 C21.5374462,18.0556059 21.8785841,18.3657483 21.9735893,18.7707092 L21.9932723,18.8833789 L22,19 L22,21 L21.9932723,21.1166211 C21.9443941,21.5374462 21.6342517,21.8785841 21.2292908,21.9735893 L21.1166211,21.9932723 L21,22 L19,22 L18.8833789,21.9932723 C18.3860402,21.9355072 18,21.5128358 18,21 C18,20.5266131 18.3289337,20.1300527 18.7707092,20.0264107 L18.8833789,20.0067277 L19,20 L20,20 L20,19 L20.0067277,18.8833789 C20.0556059,18.4625538 20.3657483,18.1214159 20.7707092,18.0264107 L20.8833789,18.0067277 L21,18 Z M13,20 C13.5522847,20 14,20.4477153 14,21 C14,21.5522847 13.5522847,22 13,22 L11,22 C10.4477153,22 10,21.5522847 10,21 C10,20.4477153 10.4477153,20 11,20 L13,20 Z M3,10 C3.55228475,10 4,10.4477153 4,11 L4,13 C4,13.5522847 3.55228475,14 3,14 C2.44771525,14 2,13.5522847 2,13 L2,11 C2,10.4477153 2.44771525,10 3,10 Z M21,10 C21.5522847,10 22,10.4477153 22,11 L22,13 C22,13.5522847 21.5522847,14 21,14 C20.4477153,14 20,13.5522847 20,13 L20,11 C20,10.4477153 20.4477153,10 21,10 Z M21,2 L21.1166211,2.00672773 C21.575703,2.06004937 21.9399506,2.42429701 21.9932723,2.88337887 L22,3 L22,5 L21.9932723,5.11662113 C21.9399506,5.57570299 21.575703,5.93995063 21.1166211,5.99327227 L21,6 L20.8833789,5.99327227 C20.424297,5.93995063 20.0600494,5.57570299 20.0067277,5.11662113 L20,5 L20,4 L19,4 L18.8833789,3.99327227 C18.3860402,3.93550716 18,3.51283584 18,3 C18,2.48716416 18.3860402,2.06449284 18.8833789,2.00672773 L19,2 L21,2 Z M5,2 L5.11662113,2.00672773 C5.61395981,2.06449284 6,2.48716416 6,3 C6,3.47338693 5.67106635,3.86994729 5.22929083,3.97358929 L5.11662113,3.99327227 L5,4 L4,4 L4,5 L3.99327227,5.11662113 C3.9443941,5.53744617 3.63425172,5.87858412 3.22929083,5.97358929 L3.11662113,5.99327227 L3,6 L2.88337887,5.99327227 C2.46255383,5.9443941 2.12141588,5.63425172 2.02641071,5.22929083 L2.00672773,5.11662113 L2,5 L2,3 L2.00672773,2.88337887 C2.0556059,2.46255383 2.36574828,2.12141588 2.77070917,2.02641071 L2.88337887,2.00672773 L3,2 L5,2 Z M15,6 C16.5976809,6 17.9036609,7.24891996 17.9949073,8.82372721 L18,9 L18,15 C18,16.5976809 16.75108,17.9036609 15.1762728,17.9949073 L15,18 L9,18 C7.40231912,18 6.09633912,16.75108 6.00509269,15.1762728 L6,15 L6,9 C6,7.40231912 7.24891996,6.09633912 8.82372721,6.00509269 L9,6 L15,6 Z M15,8 L9,8 C8.48716416,8 8.06449284,8.38604019 8.00672773,8.88337887 L8,9 L8,15 C8,15.5128358 8.38604019,15.9355072 8.88337887,15.9932723 L9,16 L15,16 C15.5128358,16 15.9355072,15.6139598 15.9932723,15.1166211 L16,15 L16,9 C16,8.48716416 15.6139598,8.06449284 15.1166211,8.00672773 L15,8 Z M13,2 C13.5522847,2 14,2.44771525 14,3 C14,3.55228475 13.5522847,4 13,4 L11,4 C10.4477153,4 10,3.55228475 10,3 C10,2.44771525 10.4477153,2 11,2 L13,2 Z"/>
</svg>